<svg xmlns="http://www.w3.org/2000/svg" width="3055.105" height="1856.052" viewBox="0 0 3055.105 1856.052">
  <g id="lines" transform="translate(-34.005 281.051) rotate(-18)">
    <g id="Group_19" data-name="Group 19">
      <path id="Path_1" data-name="Path 1" d="M-208.4,945.1s94.9-378.6,710-77.1c262.4,128.6,838.8,454.3,1102.1,417.3,547-77,813-455.4,1034.3-265" fill="none"/>
      <g id="Group_7" data-name="Group 7">
        <path id="Path_2" data-name="Path 2" d="M1519.6,1274.6c-5,0-10.1-.1-15.3-.2-36.7-1-78-5.8-122.6-14-79.3-14.7-173-41.3-278.3-79.1C910.3,1112,710.6,1017.4,564.8,948.4q-31.95-15.15-60.2-28.5c-236-111-423.3-136.2-557-75-61.9,28.3-99.2,70.5-119.6,100.9-22.1,32.9-29.7,59.5-29.8,59.7l-.4-.1c.1-.3,7.7-26.9,29.8-59.8a280.6,280.6,0,0,1,45.8-52.7,291.612,291.612,0,0,1,74-48.3c59.4-27.2,130.9-37.3,212.6-30,100,9,215.9,44.2,344.7,104.8q28.35,13.35,60.2,28.5c145.8,69.1,345.5,163.7,538.5,232.9,230.3,82.6,395.6,110.1,505.2,84,200.4-47.7,364-129.8,508.4-202.2,110.7-55.5,206.2-103.5,292.7-122.1,45.7-9.9,86.1-10.9,123.3-3.1,40.7,8.5,77.6,27.5,112.8,57.9l-.3.3c-66.8-57.6-141.7-75-235.8-54.7-86.4,18.6-182,66.6-292.6,122-69.4,34.8-148,74.3-232.3,110-96.5,40.8-186.8,71-276.2,92.3C1582.7,1271.4,1552.7,1274.6,1519.6,1274.6Z" fill="rgba(70,84,97,0.35)"/>
      </g>
      <g id="Group_8" data-name="Group 8">
        <path id="Path_3" data-name="Path 3" d="M1465,1266.2a851.763,851.763,0,0,1-97.6-6c-85.6-9.9-185.7-32.4-297.6-66.8C873.3,1133,675.2,1047.3,507.3,971.5c-229.6-103.7-414-125.6-548-65.3-63.1,28.4-101.8,70.3-123.2,100.5-23.1,32.7-31.4,59-31.5,59.3l-.8-.2c.1-.3,8.4-26.7,31.6-59.4,21.4-30.3,60.2-72.3,123.5-100.8,59.7-26.9,130.8-37.4,211.4-31.3,98.5,7.5,211.9,40,337.3,96.6,381.5,172.3,852,359.1,1105.8,273.5,157-53,297.1-125.6,420.7-189.7,128-66.4,238.5-123.7,340.3-146.9,111.7-25.5,200.4-5.6,279.2,62.6l-.5.6c-78.6-68-167.1-87.8-278.5-62.4-101.7,23.2-212.2,80.5-340.1,146.8-123.6,64.1-263.7,136.8-420.8,189.8C1572.1,1259.2,1522.3,1266.2,1465,1266.2Z" fill="rgba(70,84,97,0.35)"/>
      </g>
      <g id="Group_9" data-name="Group 9">
        <path id="Path_4" data-name="Path 4" d="M1395.2,1265c-91.5,0-197.4-14.4-317.1-43.1-164-39.4-355-106.1-567.7-198.5C287.6,926.7,106.5,907.7-27.8,966.9c-64.6,28.5-104.9,70.4-127.4,100.5-24.3,32.6-33.4,58.8-33.5,59l-1.2-.4c.1-.3,9.3-26.6,33.7-59.4,22.5-30.2,63-72.2,127.9-100.9,60-26.5,130.6-37.3,210.1-32.3,96.8,6.1,207.5,36,329.1,88.8,212.7,92.3,403.6,159.1,567.5,198.4,234.7,56.3,416.4,57.4,540.1,3.1,116-50.9,223-110.1,326.4-167.3,139.1-77,270.6-149.6,389.2-179.6,131.3-33.2,235.4-11.5,327.6,68.4l-.8.9c-91.8-79.6-195.6-101.2-326.5-68.2-118.5,30-249.8,102.6-388.9,179.5C1842,1114.6,1735,1173.8,1619,1224.7,1558.2,1251.6,1483.4,1265,1395.2,1265Z" fill="rgba(70,84,97,0.35)"/>
      </g>
      <g id="Group_10" data-name="Group 10">
        <path id="Path_5" data-name="Path 5" d="M1313.1,1272.3q-104.1,0-226.8-21.1c-213.6-36.9-429.5-116-573-175.9-215.6-90-393-106.2-527.4-48.2-127.1,54.8-167.6,158.9-168,159.9l-1.5-.6c.4-1.1,41.1-105.7,168.8-160.8,60.2-26,130.3-37.1,208.5-33.1,94.9,4.9,202.7,32.2,320.2,81.3,143.5,59.9,359.3,139,572.7,175.8,227.6,39.3,408.1,23.7,536.8-46.2,78-42.4,154.4-88.6,228.3-133.3,154.4-93.4,300.2-181.6,436.8-221.1,153-44.3,274.1-21.6,381.2,71.4l-1.1,1.2c-106.6-92.6-227.3-115.1-379.7-71-136.3,39.5-282.1,127.6-436.4,220.9-73.9,44.7-150.3,90.9-228.4,133.3C1541.4,1249.7,1437.3,1272.3,1313.1,1272.3Z" fill="rgba(70,84,97,0.35)"/>
      </g>
      <g id="Group_11" data-name="Group 11">
        <path id="Path_6" data-name="Path 6" d="M1227.9,1288.5a1258,1258,0,0,1-132.9-7.3c-172.4-18.1-372.5-71.4-578.7-154.2-284.7-114.3-457.7-75.4-552.6-22.7-102.8,57.1-138.8,142.2-139.2,143l-1.9-.8c.4-.9,36.6-86.6,140.1-144.1,60.7-33.7,132.3-51.2,212.9-52.1h6.1c99.1,0,211.9,25.1,335.4,74.7,206.1,82.7,406,136,578.2,154.1,220.6,23.2,399.9-9.2,533-96.3,42.6-27.8,85.9-57.1,127.7-85.4,159.9-108.1,325.2-219.8,480.7-272.4,83.8-28.3,158.3-37.8,227.7-29,78,9.9,147.7,42.3,213.1,99.3l-1.4,1.6C2554.6,791.1,2411,768.2,2237.3,827,2082,879.5,1916.8,991.2,1757,1099.2c-41.9,28.3-85.2,57.6-127.8,85.4C1523.6,1253.7,1389,1288.5,1227.9,1288.5Z" fill="rgba(70,84,97,0.35)"/>
      </g>
      <g id="Group_12" data-name="Group 12">
        <path id="Path_7" data-name="Path 7" d="M1148.6,1313c-14.6,0-29.4-.3-44.4-.8-176.1-6.6-373-51.5-585.1-133.3-277.6-107.1-450-66.2-545.7-13.1-103.6,57.5-142.1,141.3-142.5,142.2l-2.2-1c.4-.8,39.3-85.4,143.6-143.3,61.2-34,132.7-52.3,212.4-54.5,99.6-2.6,212.4,20,335.3,67.4,333,128.5,796.5,230.4,1113-14.1l24.1-18.7c168.6-130.4,343-265.3,518.9-336.2,201.1-81.1,367.7-60.6,509.3,62.7l-1.6,1.9c-315.8-275-692.7,16.5-1025.1,273.6l-24.1,18.7C1506.8,1263.1,1343.5,1313,1148.6,1313Z" fill="rgba(70,84,97,0.35)"/>
      </g>
      <g id="Group_13" data-name="Group 13">
        <path id="Path_8" data-name="Path 8" d="M-162.5,1368.4l-2.6-1.3c.4-.8,41.9-84.3,147.1-142.7,61.8-34.3,133.1-53.5,212-56.9,98.5-4.2,209.2,16,329,60.4,329.7,122.2,790.7,206.4,1114.7-85.9,151.6-136.7,331.1-286.9,514.1-364,97.9-41.2,190.4-58.5,275-51.3,96,8.2,185.6,48,266.4,118.5l-1.9,2.2c-152.8-133.2-328.9-155-538.4-66.7-182.5,76.9-361.9,226.9-513.3,363.5-139.9,126.3-316.6,193.4-525.1,199.6-176.3,5.3-375.7-32.8-592.5-113.1-270.3-100.2-442-57.4-538.5-3.8C-120.9,1284.8-162.1,1367.5-162.5,1368.4Z" fill="rgba(70,84,97,0.35)"/>
      </g>
      <g id="Group_14" data-name="Group 14">
        <path id="Path_9" data-name="Path 9" d="M-155.9,1428.9l-2.9-1.5c.4-.8,44.6-83.3,150.8-142.4,97.9-54.4,270-99.6,534.3-5.7,478.4,170.1,854,117.1,1116.4-157.7,423.5-443.5,779.6-544.9,1058.7-301.4l-2.2,2.5C2421.7,580.6,2067,681.9,1645,1123.9c-141,147.6-315.5,232.4-518.9,252.1-176.2,17.1-378.4-14.4-601-93.6-263-93.5-434.1-48.7-531.4,5.4C-111.7,1346.3-155.5,1428.1-155.9,1428.9Z" fill="rgba(70,84,97,0.35)"/>
      </g>
      <g id="Group_15" data-name="Group 15">
        <path id="Path_10" data-name="Path 10" d="M-149.4,1489.4l-3.2-1.8c.5-.8,47.3-82.4,154.4-142.1,98.7-55,270.4-102.3,527.4-14.7,487.8,166.2,853.6,91.1,1118.2-229.5,127.7-154.7,385.5-417.9,677.6-441.7,138.8-11.3,268.1,34.3,384.2,135.7l-2.4,2.8C2591.5,697.4,2463.2,652,2325.4,663.3c-290.8,23.7-547.8,286.1-675.1,440.4-174.5,211.4-392.8,316.5-660.7,316.6-140,0-293.5-28.7-461.5-85.9-255.7-87.1-426.3-40.2-524.4,14.5C-102.6,1407.9-149,1488.6-149.4,1489.4Z" fill="rgba(70,84,97,0.35)"/>
      </g>
      <g id="Group_16" data-name="Group 16">
        <path id="Path_11" data-name="Path 11" d="M-142.9,1549.9l-3.5-2.1c.5-.8,50.1-81.6,158.1-142,99.6-55.7,270.8-105,520.6-23.7,501,163.1,856.8,67.4,1119.9-301.3C1836.5,822.5,2077,653,2295.4,627.5c151.3-17.7,293.2,30.3,421.6,142.6l-2.7,3.1C2586.7,661.7,2445.9,614,2295.8,631.5c-217.3,25.4-456.8,194.2-640.5,451.7-139.5,195.5-303.8,312.7-502.3,358.2-178.4,40.9-381.9,22.8-622.2-55.4-248.4-80.9-418.4-31.9-517.3,23.4C-93.4,1469.3-142.4,1549.1-142.9,1549.9Z" fill="rgba(70,84,97,0.35)"/>
      </g>
      <g id="Group_17" data-name="Group 17">
        <path id="Path_12" data-name="Path 12" d="M-136.4,1610.5l-3.8-2.4c.5-.8,52.8-80.9,161.7-142,100.5-56.4,271.2-107.7,513.7-32.5,510.7,158.5,867.1,40,1121.6-373,122.4-198.6,346.8-425,609.5-464.7,163-24.6,317.3,25.6,458.5,149.3l-3,3.4C2581.6,625.9,2428.5,576,2266.9,600.4c-261.2,39.4-484.5,264.8-606.4,462.6-135,219-295.9,353.5-491.9,411.3-178.6,52.6-386.3,40.8-634.8-36.4-240.9-74.8-410.3-23.9-510,32C-84.1,1530.4-135.9,1609.7-136.4,1610.5Z" fill="rgba(70,84,97,0.35)"/>
      </g>
    </g>
  </g>
</svg>
