<svg xmlns="http://www.w3.org/2000/svg" viewBox="0 0 261 369.55"><defs><style>.cls-1{fill:#b8c9cb;stroke:#fff;}</style></defs><title>Ресурс 1</title><g id="Слой_2" data-name="Слой 2"><g id="Слой_1-2" data-name="Слой 1"><path class="cls-1" d="M130.5.5C58.82.5.5,58.82.5,130.5c0,87.26,119.19,229.85,124.26,235.88a7.5,7.5,0,0,0,5.71,2.67h0a7.49,7.49,0,0,0,5.7-2.62c5.07-5.92,124.3-146.16,124.3-235.93C260.5,58.82,202.18.5,130.5.5Zm.05,349.25C106.61,320,15.5,202,15.5,130.5a115,115,0,0,1,230,0C245.5,204,154.55,320.33,130.55,349.75Z"/><path class="cls-1" d="M130.5,72.79a55.27,55.27,0,1,0,55.27,55.27A55.33,55.33,0,0,0,130.5,72.79Zm0,95.54a40.27,40.27,0,1,1,40.27-40.27A40.32,40.32,0,0,1,130.5,168.33Z"/></g></g></svg>